<svg xmlns="http://www.w3.org/2000/svg" xmlns:xlink="http://www.w3.org/1999/xlink" width="1080" zoomAndPan="magnify" viewBox="0 0 810 1439.999935" height="1920" preserveAspectRatio="xMidYMid meet" version="1.0"><defs><g/><clipPath id="7c75940611"><path d="M 341.394531 214.863281 L 468.894531 214.863281 L 468.894531 342.363281 L 341.394531 342.363281 Z M 341.394531 214.863281 " clip-rule="nonzero"/></clipPath><clipPath id="d02bfc2d4f"><path d="M 341.394531 1105.007812 L 468.894531 1105.007812 L 468.894531 1232.507812 L 341.394531 1232.507812 Z M 341.394531 1105.007812 " clip-rule="nonzero"/></clipPath></defs><rect x="-81" width="972" fill="#ffffff" y="-143.999994" height="1727.999922" fill-opacity="1"/><rect x="-81" width="972" fill="#ffffff" y="-143.999994" height="1727.999922" fill-opacity="1"/><path fill="#d0dcdc" d="M 0 1 L 809.855469 1 L 809.855469 1440.5 L 0 1440.5 Z M 0 1 " fill-opacity="1" fill-rule="nonzero"/><path fill="#f7e4e0" d="M 726.839844 486.429688 L 726.839844 955.070312 C 726.839844 1023.707031 671.007812 1079.53125 602.359375 1079.53125 L 596.601562 1079.53125 L 596.601562 1115.171875 L 529.421875 1115.171875 L 529.421875 1120.929688 C 529.421875 1189.566406 473.589844 1245.390625 404.941406 1245.390625 C 336.296875 1245.390625 280.460938 1189.566406 280.460938 1120.929688 L 280.460938 1115.171875 L 213.285156 1115.171875 L 213.285156 1079.53125 L 207.523438 1079.53125 C 138.878906 1079.53125 83.042969 1023.707031 83.042969 955.070312 L 83.042969 486.429688 C 83.042969 417.792969 138.878906 361.96875 207.523438 361.96875 L 213.285156 361.96875 L 213.285156 326.328125 L 280.433594 326.328125 L 280.433594 320.570312 C 280.433594 251.933594 336.265625 196.109375 404.914062 196.109375 C 473.5625 196.109375 529.394531 251.933594 529.394531 320.570312 L 529.394531 326.328125 L 596.574219 326.328125 L 596.574219 361.96875 L 602.332031 361.96875 C 670.976562 361.96875 726.8125 417.792969 726.839844 486.429688 Z M 726.839844 486.429688 " fill-opacity="1" fill-rule="nonzero"/><path fill="#bf643a" d="M 556.375 192.625 L 544.050781 180.277344 L 556.375 167.953125 L 556.375 150.507812 L 573.824219 150.507812 L 586.175781 138.15625 L 598.5 150.507812 L 615.953125 150.507812 L 615.953125 167.953125 L 628.277344 180.277344 L 615.953125 192.625 L 615.953125 210.042969 L 598.5 210.042969 L 586.175781 222.394531 L 573.824219 210.042969 L 556.375 210.042969 Z M 707 145.125 L 671.8125 180.277344 L 707 215.429688 Z M 621.335938 59.472656 L 550.988281 59.472656 L 586.175781 94.625 Z M 550.988281 301.078125 L 621.335938 301.078125 L 586.175781 265.925781 Z M 742.445312 58.667969 L 735.019531 51.238281 L 727.1875 73.898438 L 749.847656 66.066406 Z M 742.445312 301.914062 L 749.847656 294.484375 L 727.1875 286.65625 L 735.019531 309.3125 Z M 707 341.703125 L 707 331.191406 L 685.433594 341.703125 L 707 352.179688 Z M 435.261719 51.238281 L 427.863281 58.667969 L 420.433594 66.066406 L 443.09375 73.898438 Z M 195.949219 210.042969 L 213.398438 210.042969 L 225.722656 222.394531 L 238.046875 210.042969 L 255.496094 210.042969 L 255.496094 192.625 L 267.851562 180.277344 L 255.496094 167.953125 L 255.496094 150.507812 L 238.046875 150.507812 L 225.722656 138.15625 L 213.398438 150.507812 L 195.949219 150.507812 L 195.949219 167.953125 L 183.597656 180.277344 L 195.949219 192.625 Z M 104.898438 145.125 L 104.898438 215.429688 L 140.058594 180.277344 Z M 260.882812 59.472656 L 190.566406 59.472656 L 225.722656 94.625 Z M 190.566406 301.078125 L 260.882812 301.078125 L 225.722656 265.925781 Z M 381.992188 58.667969 L 374.59375 51.238281 L 366.761719 73.898438 L 389.421875 66.066406 Z M 74.839844 51.238281 L 67.410156 58.667969 L 60.007812 66.066406 L 82.671875 73.898438 Z M 74.839844 309.3125 L 82.671875 286.65625 L 60.007812 294.484375 L 67.410156 301.914062 Z M 102.855469 331.191406 L 102.855469 352.179688 L 124.421875 341.703125 Z M 735.046875 389.980469 L 752.46875 389.980469 L 764.820312 402.332031 L 765.484375 401.640625 L 765.484375 319.53125 L 764.820312 318.871094 L 752.46875 331.191406 L 735.046875 331.191406 L 735.046875 348.640625 L 723.066406 360.585938 L 735.046875 372.535156 Z M 57.386719 389.980469 L 74.808594 389.980469 L 74.808594 372.535156 L 86.789062 360.585938 L 74.808594 348.640625 L 74.808594 331.191406 L 57.386719 331.191406 L 45.035156 318.871094 L 44.371094 319.53125 L 44.371094 401.640625 L 45.035156 402.332031 Z M 707 1073.425781 L 707 1052.46875 L 685.433594 1062.949219 Z M 102.855469 1052.46875 L 102.855469 1073.425781 L 124.421875 1062.949219 Z M 137.839844 369.683594 C 143.628906 366.230469 149.703125 363.148438 156.011719 360.558594 C 170.234375 354.714844 185.640625 351.203125 201.765625 350.539062 L 201.765625 314.78125 L 269.117188 314.78125 C 269.691406 300.964844 272.371094 287.632812 276.804688 275.167969 C 284.0625 254.785156 296.039062 236.617188 311.445312 221.992188 C 318.644531 215.167969 326.589844 209.125 335.144531 203.96875 L 311.445312 180.277344 L 346.605469 145.125 L 346.605469 197.808594 C 355.789062 193.433594 365.550781 190.0625 375.714844 187.820312 C 385.160156 185.71875 394.949219 184.59375 405 184.59375 C 415.050781 184.59375 424.839844 185.746094 434.285156 187.820312 C 445.199219 190.238281 455.648438 193.949219 465.410156 198.816406 L 465.410156 145.125 L 500.570312 180.277344 L 476.09375 204.746094 C 484.589844 209.988281 492.480469 216.089844 499.589844 223 C 514.882812 237.796875 526.6875 256.136719 533.714844 276.695312 C 537.832031 288.726562 540.335938 301.539062 540.882812 314.8125 L 608.175781 314.8125 L 608.175781 350.597656 C 624.332031 351.257812 639.707031 354.773438 653.933594 360.617188 C 660.699219 363.410156 667.175781 366.71875 673.367188 370.519531 C 677.746094 373.199219 681.976562 376.105469 686.007812 379.273438 L 707.058594 369.023438 L 707.058594 389.980469 L 687.5625 380.480469 C 704.925781 394.472656 718.804688 412.609375 727.648438 433.425781 L 735.105469 411.832031 L 749.960938 426.6875 L 728.019531 434.261719 C 732.917969 446.007812 736.199219 458.589844 737.609375 471.714844 C 738.128906 476.523438 738.414062 481.449219 738.414062 486.398438 L 738.414062 651.105469 L 749.933594 655.078125 L 738.414062 666.597656 L 738.414062 691.789062 L 752.554688 691.789062 L 764.878906 679.464844 L 765.539062 680.15625 L 765.539062 762.207031 L 764.878906 762.898438 L 752.554688 750.578125 L 738.414062 750.578125 L 738.414062 775.765625 L 749.933594 787.285156 L 738.414062 791.257812 L 738.414062 955.015625 C 738.414062 960.28125 738.070312 965.464844 737.496094 970.558594 C 735.996094 983.6875 732.628906 996.242188 727.648438 1007.988281 L 749.933594 1015.675781 L 742.503906 1023.101562 L 735.074219 1030.53125 L 727.445312 1008.417969 C 716.214844 1034.648438 696.953125 1056.640625 672.761719 1071.324219 C 666.027344 1075.414062 658.914062 1078.953125 651.484375 1081.832031 C 637.949219 1087.101562 623.378906 1090.269531 608.148438 1090.902344 L 608.148438 1126.660156 L 540.855469 1126.660156 C 540.277344 1140.21875 537.714844 1153.261719 533.453125 1165.496094 C 526.339844 1185.96875 514.421875 1204.25 499.101562 1218.960938 C 491.933594 1225.839844 484.011719 1231.914062 475.488281 1237.097656 L 500.542969 1262.144531 L 465.382812 1297.296875 L 465.382812 1242.652344 C 455.621094 1247.519531 445.199219 1251.234375 434.253906 1253.652344 C 424.8125 1255.753906 415.019531 1256.875 404.972656 1256.875 C 394.921875 1256.875 385.132812 1255.726562 375.6875 1253.652344 C 365.523438 1251.40625 355.761719 1248.039062 346.574219 1243.660156 L 346.574219 1297.296875 L 311.417969 1262.144531 L 335.691406 1237.875 C 327.109375 1232.78125 319.132812 1226.734375 311.90625 1219.9375 C 296.441406 1205.429688 284.378906 1187.320312 277.035156 1166.996094 C 272.457031 1154.328125 269.664062 1140.796875 269.089844 1126.6875 L 201.792969 1126.6875 L 201.792969 1090.960938 C 186.5625 1090.328125 171.992188 1087.160156 158.457031 1081.890625 C 151.488281 1079.183594 144.808594 1075.933594 138.445312 1072.160156 C 113.652344 1057.476562 93.929688 1035.164062 82.496094 1008.476562 L 74.867188 1030.585938 L 67.4375 1023.160156 L 60.007812 1015.730469 L 82.296875 1008.046875 C 77.3125 996.328125 73.945312 983.746094 72.449219 970.617188 C 71.871094 965.492188 71.527344 960.339844 71.527344 955.070312 L 71.527344 791.3125 L 60.007812 787.339844 L 67.4375 779.914062 L 71.527344 775.824219 L 71.527344 750.632812 L 57.386719 750.632812 L 45.0625 762.898438 L 44.402344 762.207031 L 44.402344 680.097656 L 45.0625 679.40625 L 57.386719 691.730469 L 71.527344 691.730469 L 71.527344 666.539062 L 67.4375 662.449219 L 60.007812 655.023438 L 71.527344 651.050781 L 71.527344 486.34375 C 71.527344 481.390625 71.8125 476.496094 72.332031 471.660156 C 73.742188 458.53125 77.027344 445.949219 81.921875 434.203125 L 59.980469 426.632812 L 67.410156 419.203125 L 74.839844 411.777344 L 82.296875 433.367188 C 91.136719 412.582031 105.015625 394.414062 122.378906 380.421875 L 102.882812 389.925781 L 102.882812 368.964844 L 123.933594 379.214844 C 128.339844 375.757812 133.003906 372.59375 137.839844 369.683594 Z M 83.042969 486.429688 L 83.042969 955.070312 C 83.042969 1023.707031 138.878906 1079.53125 207.523438 1079.53125 L 213.285156 1079.53125 L 213.285156 1115.171875 L 280.460938 1115.171875 L 280.460938 1120.929688 C 280.460938 1189.566406 336.296875 1245.390625 404.941406 1245.390625 C 473.589844 1245.390625 529.421875 1189.566406 529.421875 1120.929688 L 529.421875 1115.171875 L 596.601562 1115.171875 L 596.601562 1079.53125 L 602.359375 1079.53125 C 671.007812 1079.53125 726.839844 1023.707031 726.839844 955.070312 L 726.839844 486.429688 C 726.839844 417.792969 671.007812 361.96875 602.359375 361.96875 L 596.601562 361.96875 L 596.601562 326.328125 L 529.421875 326.328125 L 529.421875 320.570312 C 529.421875 251.933594 473.589844 196.109375 404.941406 196.109375 C 336.296875 196.109375 280.460938 251.933594 280.460938 320.570312 L 280.460938 326.328125 L 213.285156 326.328125 L 213.285156 361.96875 L 207.523438 361.96875 C 138.878906 361.96875 83.042969 417.792969 83.042969 486.429688 Z M 615.953125 1232.375 L 598.5 1232.375 L 586.175781 1220.054688 L 573.824219 1232.375 L 556.375 1232.375 L 556.375 1249.824219 L 544.050781 1262.175781 L 556.375 1274.496094 L 556.375 1291.941406 L 573.824219 1291.941406 L 586.175781 1304.265625 L 598.5 1291.941406 L 615.953125 1291.941406 L 615.953125 1274.496094 L 628.277344 1262.175781 L 615.953125 1249.824219 Z M 707 1297.328125 L 707 1227.019531 L 671.8125 1262.175781 Z M 621.335938 1141.371094 L 550.988281 1141.371094 L 586.175781 1176.523438 Z M 550.988281 1382.976562 L 621.335938 1382.976562 L 586.175781 1347.824219 Z M 735.019531 1133.136719 L 727.1875 1155.796875 L 749.847656 1147.964844 L 742.445312 1140.535156 Z M 707 1111.257812 L 707 1090.269531 L 685.433594 1100.75 Z M 735.019531 1391.210938 L 742.445312 1383.78125 L 749.847656 1376.382812 L 727.1875 1368.554688 Z M 752.46875 1052.46875 L 735.046875 1052.46875 L 735.046875 1069.886719 L 723.066406 1081.863281 L 735.046875 1093.808594 L 735.046875 1111.257812 L 752.46875 1111.257812 L 764.820312 1123.578125 L 765.484375 1122.917969 L 765.484375 1040.808594 L 764.820312 1040.117188 Z M 427.863281 1383.78125 L 435.261719 1391.210938 L 443.09375 1368.554688 L 420.433594 1376.382812 Z M 255.496094 1232.375 L 238.046875 1232.375 L 225.722656 1220.054688 L 213.398438 1232.375 L 195.949219 1232.375 L 195.949219 1249.824219 L 183.597656 1262.175781 L 195.949219 1274.496094 L 195.949219 1291.941406 L 213.398438 1291.941406 L 225.722656 1304.265625 L 238.046875 1291.941406 L 255.496094 1291.941406 L 255.496094 1274.496094 L 267.851562 1262.175781 L 255.496094 1249.824219 Z M 104.898438 1297.328125 L 140.058594 1262.175781 L 104.898438 1227.019531 Z M 260.882812 1141.371094 L 190.566406 1141.371094 L 225.722656 1176.523438 Z M 190.566406 1382.976562 L 260.882812 1382.976562 L 225.722656 1347.824219 Z M 374.59375 1391.210938 L 381.992188 1383.78125 L 389.421875 1376.382812 L 366.761719 1368.554688 Z M 67.410156 1140.535156 L 60.007812 1147.964844 L 82.671875 1155.796875 L 74.839844 1133.136719 Z M 102.855469 1100.75 L 102.855469 1111.257812 L 124.421875 1100.75 L 102.855469 1090.269531 Z M 67.410156 1383.78125 L 74.839844 1391.210938 L 82.671875 1368.554688 L 60.007812 1376.382812 Z M 57.386719 1111.257812 L 74.808594 1111.257812 L 74.808594 1093.808594 L 86.789062 1081.863281 L 74.808594 1069.886719 L 74.808594 1052.46875 L 57.386719 1052.46875 L 45.035156 1040.117188 L 44.371094 1040.808594 L 44.371094 1122.917969 L 45.035156 1123.578125 Z M 796.207031 13.324219 L 796.207031 1428.207031 L 13.648438 1428.207031 L 13.648438 13.324219 Z M 790.449219 19.082031 L 19.40625 19.082031 L 19.40625 1422.417969 L 790.449219 1422.417969 Z M 790.449219 19.082031 " fill-opacity="1" fill-rule="nonzero"/><path fill="#bc9689" d="M 509.265625 59.472656 L 569.160156 119.386719 L 525.246094 119.386719 L 525.246094 163.289062 L 465.355469 103.378906 L 465.355469 59.472656 Z M 603.167969 119.386719 L 647.078125 119.386719 L 647.078125 163.289062 L 706.972656 103.378906 L 706.972656 59.472656 L 663.089844 59.472656 Z M 647.078125 241.195312 L 603.167969 241.195312 L 663.089844 301.078125 L 706.972656 301.078125 L 706.972656 257.175781 L 647.078125 197.289062 Z M 525.246094 197.289062 L 499.535156 223 C 514.792969 237.796875 526.628906 256.167969 533.65625 276.695312 L 569.160156 241.195312 L 525.246094 241.195312 Z M 736.082031 112.53125 L 736.082031 248.019531 L 765.484375 277.242188 L 765.484375 83.339844 Z M 104.898438 59.472656 L 104.898438 103.378906 L 164.792969 163.289062 L 164.792969 119.386719 L 208.707031 119.386719 L 148.8125 59.472656 Z M 242.742188 119.386719 L 286.652344 119.386719 L 286.652344 163.289062 L 346.546875 103.378906 L 346.546875 59.472656 L 302.632812 59.472656 Z M 286.652344 197.289062 L 286.652344 241.195312 L 242.742188 241.195312 L 276.746094 275.195312 C 284.003906 254.785156 295.984375 236.617188 311.386719 222.019531 Z M 164.792969 197.289062 L 104.898438 257.175781 L 104.898438 301.078125 L 148.8125 301.078125 L 208.707031 241.195312 L 164.792969 241.195312 Z M 405.058594 83.339844 L 404.941406 83.457031 L 404.828125 83.339844 L 404.828125 83.597656 L 375.65625 112.53125 L 375.65625 187.820312 C 385.101562 185.746094 394.894531 184.59375 404.941406 184.59375 C 414.992188 184.59375 424.78125 185.71875 434.226562 187.820312 L 434.226562 112.53125 L 405.058594 83.597656 Z M 44.371094 277.242188 L 73.773438 248.019531 L 73.773438 112.53125 L 44.371094 83.339844 Z M 683.128906 360.585938 L 653.933594 331.191406 L 608.089844 331.191406 L 608.089844 350.570312 C 624.214844 351.230469 639.621094 354.742188 653.84375 360.585938 C 660.613281 363.378906 667.121094 366.691406 673.28125 370.492188 Z M 738.328125 486.429688 L 738.328125 610.886719 L 765.484375 637.863281 L 765.484375 443.964844 L 737.523438 471.746094 C 738.042969 476.554688 738.328125 481.449219 738.328125 486.429688 Z M 201.765625 350.570312 L 201.765625 331.191406 L 157.96875 331.191406 L 128.769531 360.585938 L 137.839844 369.714844 C 143.628906 366.230469 149.703125 363.179688 156.011719 360.585938 C 170.234375 354.773438 185.640625 351.257812 201.765625 350.570312 Z M 71.527344 486.429688 C 71.527344 481.476562 71.8125 476.554688 72.332031 471.746094 L 44.371094 443.964844 L 44.371094 637.863281 L 71.527344 610.886719 Z M 738.328125 955.070312 C 738.328125 960.339844 737.984375 965.492188 737.40625 970.617188 L 765.484375 998.488281 L 765.484375 804.585938 L 738.328125 831.5625 Z M 71.527344 955.070312 L 71.527344 831.5625 L 44.371094 804.585938 L 44.371094 998.488281 L 72.449219 970.617188 C 71.84375 965.492188 71.527344 960.339844 71.527344 955.070312 Z M 569.128906 1201.253906 L 533.394531 1165.527344 C 526.285156 1185.996094 514.390625 1204.277344 499.042969 1218.988281 L 525.21875 1245.160156 L 525.21875 1201.253906 Z M 603.167969 1201.253906 L 647.078125 1201.253906 L 647.078125 1245.160156 L 706.972656 1185.277344 L 706.972656 1141.371094 L 663.089844 1141.371094 Z M 647.078125 1323.066406 L 603.167969 1323.066406 L 663.089844 1382.976562 L 706.972656 1382.976562 L 706.972656 1339.070312 L 647.078125 1279.160156 Z M 525.246094 1279.160156 L 465.355469 1339.070312 L 465.355469 1382.976562 L 509.265625 1382.976562 L 569.160156 1323.066406 L 525.246094 1323.066406 Z M 608.089844 1111.257812 L 653.933594 1111.257812 L 683.128906 1081.863281 L 672.707031 1071.355469 C 665.96875 1075.441406 658.855469 1078.953125 651.425781 1081.863281 C 637.894531 1087.132812 623.324219 1090.296875 608.089844 1090.929688 Z M 736.082031 1329.917969 L 765.484375 1359.109375 L 765.484375 1165.210938 L 736.082031 1194.402344 Z M 104.898438 1141.371094 L 104.898438 1185.277344 L 164.792969 1245.160156 L 164.792969 1201.253906 L 208.707031 1201.253906 L 148.8125 1141.371094 Z M 286.652344 1245.160156 L 311.878906 1219.9375 C 296.414062 1205.398438 284.347656 1187.320312 277.007812 1166.996094 L 242.742188 1201.253906 L 286.652344 1201.253906 Z M 286.652344 1323.066406 L 242.742188 1323.066406 L 302.632812 1382.976562 L 346.546875 1382.976562 L 346.546875 1339.070312 L 286.652344 1279.160156 Z M 164.792969 1279.160156 L 104.898438 1339.070312 L 104.898438 1382.976562 L 148.8125 1382.976562 L 208.707031 1323.066406 L 164.792969 1323.066406 Z M 157.96875 1111.257812 L 201.765625 1111.257812 L 201.765625 1090.929688 C 186.535156 1090.296875 171.964844 1087.132812 158.429688 1081.863281 C 151.460938 1079.15625 144.78125 1075.902344 138.417969 1072.132812 L 128.769531 1081.863281 Z M 375.65625 1253.679688 L 375.65625 1329.917969 L 404.828125 1358.851562 L 404.828125 1359.109375 L 404.941406 1358.996094 L 405.058594 1359.109375 L 405.058594 1358.851562 L 434.226562 1329.917969 L 434.226562 1253.679688 C 424.78125 1255.753906 414.992188 1256.90625 404.941406 1256.90625 C 394.863281 1256.90625 385.074219 1255.78125 375.65625 1253.679688 Z M 44.371094 1359.109375 L 73.773438 1329.917969 L 73.773438 1194.402344 L 44.371094 1165.210938 Z M 44.371094 1359.109375 " fill-opacity="1" fill-rule="nonzero"/><g clip-path="url(#7c75940611)"><path fill="#bf643a" d="M 468.640625 278.636719 L 454.25 261.675781 L 445.542969 261.675781 L 451.691406 255.527344 L 450.117188 233.585938 L 427.953125 231.765625 L 421.792969 237.925781 L 421.792969 229.226562 L 405.167969 214.828125 L 388.207031 229.214844 L 388.207031 237.921875 L 382.058594 231.773438 L 360.117188 233.347656 L 358.296875 255.515625 L 364.457031 261.675781 L 355.757812 261.675781 L 341.359375 278.417969 L 355.753906 295.261719 L 364.457031 295.261719 L 358.304688 301.414062 L 359.96875 323.433594 L 382.050781 325.167969 L 388.207031 319.007812 L 388.207031 327.710938 L 404.953125 342.105469 L 421.792969 327.714844 L 421.792969 319.011719 L 427.945312 325.164062 L 449.964844 323.5 L 451.695312 301.417969 L 445.542969 295.261719 L 454.238281 295.261719 Z M 429.542969 236.109375 L 446.1875 237.476562 L 447.367188 253.910156 L 439.605469 261.675781 L 421.792969 261.675781 L 421.792969 243.863281 Z M 416.15625 265.871094 L 417.59375 265.871094 L 417.59375 267.3125 Z M 417.59375 273.25 L 417.59375 283.683594 L 410.214844 291.0625 L 399.785156 291.0625 L 392.40625 283.683594 L 392.40625 273.25 L 399.78125 265.871094 L 410.214844 265.871094 Z M 411.957031 261.675781 L 407.96875 257.6875 L 417.59375 248.0625 L 417.59375 261.675781 Z M 406.019531 261.675781 L 403.980469 261.675781 L 405 260.65625 Z M 398.042969 261.675781 L 392.40625 261.675781 L 392.40625 248.0625 L 402.03125 257.6875 Z M 393.84375 265.871094 L 392.40625 267.3125 L 392.40625 265.871094 Z M 388.207031 271.511719 L 384.21875 275.5 L 374.59375 265.871094 L 388.207031 265.871094 Z M 388.207031 277.445312 L 388.207031 279.484375 L 387.1875 278.46875 Z M 388.207031 285.421875 L 388.207031 291.0625 L 374.589844 291.0625 L 384.21875 281.433594 Z M 392.40625 289.621094 L 393.84375 291.0625 L 392.40625 291.0625 Z M 398.042969 295.261719 L 402.03125 299.25 L 392.40625 308.871094 L 392.40625 295.261719 Z M 403.980469 295.261719 L 406.019531 295.261719 L 405 296.277344 Z M 411.957031 295.261719 L 417.59375 295.261719 L 417.59375 308.871094 L 407.96875 299.25 Z M 416.15625 291.0625 L 417.59375 289.621094 L 417.59375 291.0625 Z M 421.792969 285.421875 L 425.78125 281.433594 L 435.40625 291.0625 L 421.792969 291.0625 Z M 421.792969 279.484375 L 421.792969 277.449219 L 422.8125 278.46875 Z M 421.792969 271.511719 L 421.792969 265.871094 L 435.40625 265.871094 L 425.78125 275.496094 Z M 392.40625 231.160156 L 405.136719 220.355469 L 417.59375 231.144531 L 417.59375 242.121094 L 405 254.71875 L 392.40625 242.121094 Z M 362.640625 253.921875 L 364.007812 237.28125 L 380.445312 236.101562 L 388.207031 243.863281 L 388.207031 261.675781 L 370.394531 261.675781 Z M 357.6875 291.0625 L 346.890625 278.425781 L 357.683594 265.871094 L 368.65625 265.871094 L 381.25 278.46875 L 368.65625 291.0625 Z M 380.449219 320.828125 L 363.878906 319.527344 L 362.636719 303.015625 L 370.394531 295.261719 L 388.207031 295.261719 L 388.207031 313.070312 Z M 417.59375 325.777344 L 404.960938 336.578125 L 392.40625 325.785156 L 392.40625 314.8125 L 405 302.214844 L 417.59375 314.8125 Z M 447.359375 303.015625 L 446.0625 319.585938 L 429.554688 320.832031 L 421.792969 313.070312 L 421.792969 295.261719 L 439.605469 295.261719 Z M 441.34375 291.0625 L 428.75 278.46875 L 441.34375 265.871094 L 452.308594 265.871094 L 463.109375 278.605469 L 452.320312 291.0625 Z M 441.34375 291.0625 " fill-opacity="1" fill-rule="nonzero"/></g><g clip-path="url(#d02bfc2d4f)"><path fill="#bf643a" d="M 468.640625 1168.78125 L 454.25 1151.820312 L 445.542969 1151.820312 L 451.691406 1145.671875 L 450.117188 1123.730469 L 427.953125 1121.910156 L 421.792969 1128.070312 L 421.792969 1119.375 L 405.167969 1104.972656 L 388.207031 1119.363281 L 388.207031 1128.070312 L 382.058594 1121.921875 L 360.117188 1123.496094 L 358.296875 1145.660156 L 364.457031 1151.820312 L 355.757812 1151.820312 L 341.359375 1168.566406 L 355.753906 1185.40625 L 364.457031 1185.40625 L 358.304688 1191.558594 L 359.96875 1213.578125 L 382.050781 1215.3125 L 388.207031 1209.15625 L 388.207031 1217.855469 L 404.953125 1232.253906 L 421.792969 1217.859375 L 421.792969 1209.15625 L 427.945312 1215.308594 L 449.964844 1213.648438 L 451.695312 1191.5625 L 445.542969 1185.40625 L 454.238281 1185.40625 Z M 429.542969 1126.253906 L 446.1875 1127.621094 L 447.367188 1144.058594 L 439.605469 1151.820312 L 421.792969 1151.820312 L 421.792969 1134.007812 Z M 416.15625 1156.019531 L 417.59375 1156.019531 L 417.59375 1157.457031 Z M 417.59375 1163.398438 L 417.59375 1173.828125 L 410.214844 1181.207031 L 399.785156 1181.207031 L 392.40625 1173.828125 L 392.40625 1163.394531 L 399.78125 1156.019531 L 410.214844 1156.019531 Z M 411.957031 1151.820312 L 407.96875 1147.832031 L 417.59375 1138.207031 L 417.59375 1151.820312 Z M 406.019531 1151.820312 L 403.980469 1151.820312 L 405 1150.800781 Z M 398.042969 1151.820312 L 392.40625 1151.820312 L 392.40625 1138.207031 L 402.03125 1147.832031 Z M 393.84375 1156.019531 L 392.40625 1157.457031 L 392.40625 1156.019531 Z M 388.207031 1161.65625 L 384.21875 1165.644531 L 374.59375 1156.019531 L 388.207031 1156.019531 Z M 388.207031 1167.59375 L 388.207031 1169.632812 L 387.1875 1168.613281 Z M 388.207031 1175.570312 L 388.207031 1181.207031 L 374.589844 1181.207031 L 384.21875 1171.582031 Z M 392.40625 1179.769531 L 393.84375 1181.207031 L 392.40625 1181.207031 Z M 398.042969 1185.40625 L 402.03125 1189.394531 L 392.40625 1199.019531 L 392.40625 1185.40625 Z M 403.980469 1185.40625 L 406.019531 1185.40625 L 405 1186.425781 Z M 411.957031 1185.40625 L 417.59375 1185.40625 L 417.59375 1199.019531 L 407.96875 1189.394531 Z M 416.15625 1181.207031 L 417.59375 1179.769531 L 417.59375 1181.207031 Z M 421.792969 1175.570312 L 425.78125 1171.582031 L 435.40625 1181.207031 L 421.792969 1181.207031 Z M 421.792969 1169.632812 L 421.792969 1167.59375 L 422.8125 1168.613281 Z M 421.792969 1161.65625 L 421.792969 1156.019531 L 435.40625 1156.019531 L 425.78125 1165.644531 Z M 392.40625 1121.304688 L 405.136719 1110.503906 L 417.59375 1121.292969 L 417.59375 1132.269531 L 405 1144.863281 L 392.40625 1132.269531 Z M 362.640625 1144.066406 L 364.007812 1127.425781 L 380.445312 1126.246094 L 388.207031 1134.007812 L 388.207031 1151.820312 L 370.394531 1151.820312 Z M 357.6875 1181.207031 L 346.890625 1168.574219 L 357.683594 1156.019531 L 368.65625 1156.019531 L 381.25 1168.613281 L 368.65625 1181.207031 Z M 380.449219 1210.972656 L 363.878906 1209.675781 L 362.636719 1193.164062 L 370.394531 1185.40625 L 388.207031 1185.40625 L 388.207031 1203.21875 Z M 417.59375 1215.925781 L 404.960938 1226.722656 L 392.40625 1215.929688 L 392.40625 1204.957031 L 405 1192.363281 L 417.59375 1204.957031 Z M 447.359375 1193.164062 L 446.0625 1209.734375 L 429.554688 1210.976562 L 421.792969 1203.21875 L 421.792969 1185.40625 L 439.605469 1185.40625 Z M 441.34375 1181.207031 L 428.75 1168.613281 L 441.34375 1156.019531 L 452.308594 1156.019531 L 463.109375 1168.75 L 452.320312 1181.207031 Z M 441.34375 1181.207031 " fill-opacity="1" fill-rule="nonzero"/></g><g fill="#bf643a" fill-opacity="1"><g transform="translate(349.867165, 426.979016)"><g><path d="M 24.953125 -47.734375 C 22.179688 -47.734375 19.972656 -47.453125 18.328125 -46.890625 C 16.679688 -46.328125 15.394531 -45.582031 14.46875 -44.65625 C 14.375 -43.21875 14.195312 -41.421875 13.9375 -39.265625 C 13.675781 -37.109375 13.429688 -34.953125 13.203125 -32.796875 C 12.972656 -30.640625 12.753906 -28.796875 12.546875 -27.265625 C 14.191406 -27.929688 16.066406 -28.476562 18.171875 -28.90625 C 20.273438 -29.34375 22.25 -29.5625 24.09375 -29.5625 C 25.894531 -29.5625 27.421875 -29.28125 28.671875 -28.71875 C 29.929688 -28.15625 30.5625 -27.207031 30.5625 -25.875 C 30.5625 -25.71875 30.546875 -25.550781 30.515625 -25.375 C 30.492188 -25.195312 30.460938 -25.003906 30.421875 -24.796875 C 29.078125 -25.046875 27.738281 -25.234375 26.40625 -25.359375 C 25.070312 -25.492188 23.738281 -25.5625 22.40625 -25.5625 C 20.707031 -25.5625 19.007812 -25.472656 17.3125 -25.296875 C 15.625 -25.117188 13.957031 -24.847656 12.3125 -24.484375 C 12.164062 -20.640625 12.023438 -17.484375 11.890625 -15.015625 C 11.765625 -12.546875 11.648438 -10.410156 11.546875 -8.609375 C 11.441406 -6.816406 11.335938 -5 11.234375 -3.15625 C 11.804688 -3.207031 12.425781 -3.234375 13.09375 -3.234375 C 13.757812 -3.234375 14.425781 -3.234375 15.09375 -3.234375 C 18.9375 -3.234375 22 -3.375 24.28125 -3.65625 C 26.570312 -3.9375 28.320312 -4.296875 29.53125 -4.734375 C 30.738281 -5.171875 31.597656 -5.566406 32.109375 -5.921875 C 32.617188 -5.410156 32.953125 -4.921875 33.109375 -4.453125 C 33.265625 -3.992188 33.34375 -3.585938 33.34375 -3.234375 C 33.34375 -2.148438 32.851562 -1.328125 31.875 -0.765625 C 30.90625 -0.203125 29.632812 0.164062 28.0625 0.34375 C 26.5 0.519531 24.769531 0.609375 22.875 0.609375 C 20.96875 0.609375 18.65625 0.554688 15.9375 0.453125 C 13.21875 0.359375 10.519531 0.257812 7.84375 0.15625 C 5.175781 0.0507812 2.894531 0 1 0 C 1 -1.332031 2.566406 -2.226562 5.703125 -2.6875 C 5.703125 -6.644531 5.84375 -10.703125 6.125 -14.859375 C 6.40625 -19.015625 6.90625 -23.300781 7.625 -27.71875 C 7.882812 -31.207031 8.078125 -34.503906 8.203125 -37.609375 C 8.328125 -40.710938 8.390625 -43.523438 8.390625 -46.046875 C 8.390625 -46.921875 8.390625 -47.765625 8.390625 -48.578125 C 8.390625 -49.398438 8.363281 -50.171875 8.3125 -50.890625 C 9.90625 -51.253906 11.164062 -51.4375 12.09375 -51.4375 C 12.863281 -51.4375 13.488281 -51.113281 13.96875 -50.46875 C 14.457031 -49.832031 14.703125 -48.820312 14.703125 -47.4375 L 14.703125 -47.203125 C 16.035156 -48.484375 17.535156 -49.46875 19.203125 -50.15625 C 20.878906 -50.851562 22.5625 -51.34375 24.25 -51.625 C 25.945312 -51.90625 27.460938 -52.046875 28.796875 -52.046875 C 30.441406 -52.046875 31.914062 -51.851562 33.21875 -51.46875 C 34.53125 -51.082031 35.1875 -50.328125 35.1875 -49.203125 C 35.1875 -48.484375 34.773438 -47.5625 33.953125 -46.4375 C 32.828125 -46.894531 31.453125 -47.222656 29.828125 -47.421875 C 28.210938 -47.628906 26.585938 -47.734375 24.953125 -47.734375 Z M 24.953125 -47.734375 "/></g></g></g><g fill="#bf643a" fill-opacity="1"><g transform="translate(386.977433, 426.979016)"><g><path d="M 13.390625 -43.28125 C 12.210938 -43.28125 11.1875 -43.710938 10.3125 -44.578125 C 9.445312 -45.453125 9.015625 -46.476562 9.015625 -47.65625 C 9.015625 -48.84375 9.445312 -49.867188 10.3125 -50.734375 C 11.1875 -51.609375 12.210938 -52.046875 13.390625 -52.046875 C 14.578125 -52.046875 15.601562 -51.609375 16.46875 -50.734375 C 17.34375 -49.867188 17.78125 -48.84375 17.78125 -47.65625 C 17.78125 -46.476562 17.34375 -45.453125 16.46875 -44.578125 C 15.601562 -43.710938 14.578125 -43.28125 13.390625 -43.28125 Z M 10.09375 1.078125 C 8.75 1.078125 7.875 0.539062 7.46875 -0.53125 C 7.0625 -1.613281 6.859375 -3.050781 6.859375 -4.84375 C 6.859375 -7.71875 7.097656 -10.539062 7.578125 -13.3125 C 8.066406 -16.09375 8.554688 -18.738281 9.046875 -21.25 C 9.535156 -23.769531 9.78125 -26.109375 9.78125 -28.265625 C 9.78125 -28.828125 9.753906 -29.441406 9.703125 -30.109375 C 9.648438 -30.773438 9.519531 -31.285156 9.3125 -31.640625 C 8.488281 -31.128906 7.421875 -30.28125 6.109375 -29.09375 C 4.804688 -27.914062 3.769531 -26.609375 3 -25.171875 C 2.644531 -25.535156 2.46875 -26.023438 2.46875 -26.640625 C 2.46875 -27.515625 2.8125 -28.460938 3.5 -29.484375 C 4.195312 -30.515625 5.125 -31.503906 6.28125 -32.453125 C 7.4375 -33.398438 8.679688 -34.179688 10.015625 -34.796875 C 11.347656 -35.421875 12.65625 -35.734375 13.9375 -35.734375 C 15.113281 -35.734375 15.867188 -35.445312 16.203125 -34.875 C 16.535156 -34.3125 16.703125 -33.59375 16.703125 -32.71875 C 16.703125 -31.4375 16.535156 -29.78125 16.203125 -27.75 C 15.867188 -25.726562 15.484375 -23.5625 15.046875 -21.25 C 14.617188 -18.9375 14.234375 -16.625 13.890625 -14.3125 C 13.554688 -12.007812 13.390625 -9.910156 13.390625 -8.015625 C 13.390625 -7.035156 13.441406 -6.117188 13.546875 -5.265625 C 13.648438 -4.421875 13.78125 -3.71875 13.9375 -3.15625 C 15.21875 -3.71875 16.4375 -4.550781 17.59375 -5.65625 C 18.75 -6.757812 19.609375 -7.800781 20.171875 -8.78125 C 20.484375 -8.3125 20.640625 -7.820312 20.640625 -7.3125 C 20.640625 -6.488281 20.28125 -5.585938 19.5625 -4.609375 C 18.84375 -3.640625 17.941406 -2.71875 16.859375 -1.84375 C 15.785156 -0.96875 14.644531 -0.265625 13.4375 0.265625 C 12.226562 0.804688 11.113281 1.078125 10.09375 1.078125 Z M 10.09375 1.078125 "/></g></g></g><g fill="#bf643a" fill-opacity="1"><g transform="translate(409.921131, 426.979016)"><g><path d="M 36.8125 -8.78125 C 37.113281 -8.414062 37.265625 -7.898438 37.265625 -7.234375 C 37.265625 -6.160156 36.800781 -4.96875 35.875 -3.65625 C 34.957031 -2.34375 33.816406 -1.222656 32.453125 -0.296875 C 31.097656 0.617188 29.800781 1.078125 28.5625 1.078125 C 26.925781 1.078125 25.601562 0.078125 24.59375 -1.921875 C 23.59375 -3.921875 23.09375 -6.644531 23.09375 -10.09375 L 23.09375 -11.46875 C 21.96875 -9.257812 20.644531 -7.191406 19.125 -5.265625 C 17.613281 -3.347656 16.007812 -1.8125 14.3125 -0.65625 C 12.625 0.5 10.90625 1.078125 9.15625 1.078125 C 7.519531 1.078125 6.25 0.566406 5.34375 -0.453125 C 4.445312 -1.484375 3.816406 -2.804688 3.453125 -4.421875 C 3.097656 -6.046875 2.921875 -7.675781 2.921875 -9.3125 C 2.921875 -9.832031 2.929688 -10.320312 2.953125 -10.78125 C 2.984375 -11.238281 3.023438 -11.703125 3.078125 -12.171875 C 3.492188 -16.835938 4.585938 -20.941406 6.359375 -24.484375 C 8.128906 -28.023438 10.320312 -30.785156 12.9375 -32.765625 C 15.550781 -34.742188 18.269531 -35.734375 21.09375 -35.734375 C 22.738281 -35.734375 24.28125 -35.375 25.71875 -34.65625 C 26.03125 -37.0625 26.257812 -39.519531 26.40625 -42.03125 C 26.5625 -44.550781 26.640625 -46.835938 26.640625 -48.890625 C 26.640625 -51.609375 26.507812 -53.664062 26.25 -55.0625 C 27.28125 -55.363281 28.140625 -55.566406 28.828125 -55.671875 C 29.523438 -55.773438 30.101562 -55.828125 30.5625 -55.828125 C 31.382812 -55.828125 32.015625 -55.503906 32.453125 -54.859375 C 32.890625 -54.222656 33.109375 -52.800781 33.109375 -50.59375 C 33.109375 -49.875 33.082031 -49.0625 33.03125 -48.15625 C 32.976562 -47.257812 32.898438 -46.25 32.796875 -45.125 C 32.742188 -43.53125 32.550781 -41.332031 32.21875 -38.53125 C 31.882812 -35.738281 31.285156 -32.625 30.421875 -29.1875 C 30.367188 -27.90625 30.25 -25.976562 30.0625 -23.40625 C 29.882812 -20.84375 29.796875 -17.96875 29.796875 -14.78125 C 29.796875 -12.625 29.921875 -10.453125 30.171875 -8.265625 C 30.429688 -6.085938 31.050781 -4.460938 32.03125 -3.390625 C 32.90625 -3.953125 33.789062 -4.742188 34.6875 -5.765625 C 35.582031 -6.796875 36.289062 -7.800781 36.8125 -8.78125 Z M 12.46875 -4.390625 C 13.957031 -4.390625 15.765625 -5.347656 17.890625 -7.265625 C 20.023438 -9.191406 21.863281 -11.878906 23.40625 -15.328125 C 23.613281 -17.535156 23.859375 -19.867188 24.140625 -22.328125 C 24.421875 -24.796875 24.664062 -26.898438 24.875 -28.640625 C 23.894531 -29.867188 22.914062 -30.703125 21.9375 -31.140625 C 20.96875 -31.578125 19.96875 -31.796875 18.9375 -31.796875 C 16.007812 -31.796875 13.738281 -30.769531 12.125 -28.71875 C 10.507812 -26.664062 9.5 -23.484375 9.09375 -19.171875 C 8.988281 -17.992188 8.894531 -16.878906 8.8125 -15.828125 C 8.738281 -14.773438 8.703125 -13.8125 8.703125 -12.9375 C 8.703125 -9.957031 9.035156 -7.785156 9.703125 -6.421875 C 10.367188 -5.066406 11.289062 -4.390625 12.46875 -4.390625 Z M 12.46875 -4.390625 "/></g></g></g><g fill="#bf643a" fill-opacity="1"><g transform="translate(448.574192, 426.979016)"><g/></g></g><g fill="#bf643a" fill-opacity="1"><g transform="translate(262.785141, 534.229006)"><g><path d="M 49.96875 -50.96875 C 51.40625 -50.96875 52.753906 -49.660156 54.015625 -47.046875 C 55.273438 -44.429688 56.40625 -40.785156 57.40625 -36.109375 C 58.40625 -31.441406 59.238281 -26 59.90625 -19.78125 C 60.570312 -13.570312 61.035156 -6.847656 61.296875 0.390625 C 60.773438 0.640625 60.15625 0.800781 59.4375 0.875 C 58.71875 0.957031 58.234375 1 57.984375 1 C 57.210938 1 56.59375 0.753906 56.125 0.265625 C 55.664062 -0.222656 55.347656 -1.1875 55.171875 -2.625 C 54.992188 -4.0625 54.878906 -6.164062 54.828125 -8.9375 C 54.773438 -12.113281 54.628906 -15.394531 54.390625 -18.78125 C 54.160156 -22.175781 53.816406 -25.515625 53.359375 -28.796875 C 52.898438 -32.078125 52.3125 -35.128906 51.59375 -37.953125 C 50.875 -40.785156 50 -43.203125 48.96875 -45.203125 C 47.175781 -40.734375 45.597656 -36.394531 44.234375 -32.1875 C 42.878906 -27.976562 41.75 -24.085938 40.84375 -20.515625 C 39.945312 -16.953125 39.269531 -13.882812 38.8125 -11.3125 C 37.988281 -6.59375 37.175781 -3.332031 36.375 -1.53125 C 35.582031 0.257812 34.519531 1.15625 33.1875 1.15625 C 32.976562 1.15625 32.65625 1.128906 32.21875 1.078125 C 31.78125 1.023438 31.332031 0.894531 30.875 0.6875 C 30.664062 -4.59375 30.226562 -9.660156 29.5625 -14.515625 C 28.894531 -19.367188 28.097656 -23.820312 27.171875 -27.875 C 26.253906 -31.925781 25.296875 -35.441406 24.296875 -38.421875 C 23.296875 -41.398438 22.359375 -43.6875 21.484375 -45.28125 C 19.785156 -41.632812 18.382812 -37.640625 17.28125 -33.296875 C 16.175781 -28.960938 15.1875 -24.070312 14.3125 -18.625 C 13.445312 -13.1875 12.578125 -6.976562 11.703125 0 C 9.703125 0.101562 8.328125 -0.113281 7.578125 -0.65625 C 6.835938 -1.195312 6.46875 -2.59375 6.46875 -4.84375 C 6.46875 -7 6.695312 -9.601562 7.15625 -12.65625 C 7.625 -15.71875 8.265625 -18.976562 9.078125 -22.4375 C 9.898438 -25.90625 10.847656 -29.320312 11.921875 -32.6875 C 13.003906 -36.050781 14.132812 -39.117188 15.3125 -41.890625 C 16.5 -44.660156 17.707031 -46.863281 18.9375 -48.5 C 20.175781 -50.144531 21.359375 -50.96875 22.484375 -50.96875 C 23.609375 -50.96875 24.6875 -50.109375 25.71875 -48.390625 C 26.75 -46.671875 27.695312 -44.398438 28.5625 -41.578125 C 29.4375 -38.753906 30.21875 -35.632812 30.90625 -32.21875 C 31.601562 -28.8125 32.207031 -25.347656 32.71875 -21.828125 C 33.238281 -18.316406 33.625 -15.070312 33.875 -12.09375 C 34.644531 -15.320312 35.519531 -18.71875 36.5 -22.28125 C 37.476562 -25.851562 38.503906 -29.332031 39.578125 -32.71875 C 40.648438 -36.113281 41.765625 -39.179688 42.921875 -41.921875 C 44.078125 -44.671875 45.257812 -46.863281 46.46875 -48.5 C 47.675781 -50.144531 48.84375 -50.96875 49.96875 -50.96875 Z M 49.96875 -50.96875 "/></g></g></g><g fill="#bf643a" fill-opacity="1"><g transform="translate(329.075484, 534.229006)"><g><path d="M 39.65625 -9.46875 C 39.957031 -9.007812 40.109375 -8.5 40.109375 -7.9375 C 40.109375 -7.007812 39.785156 -6.019531 39.140625 -4.96875 C 38.503906 -3.914062 37.695312 -2.925781 36.71875 -2 C 35.75 -1.070312 34.738281 -0.328125 33.6875 0.234375 C 32.632812 0.796875 31.671875 1.078125 30.796875 1.078125 C 29.203125 1.078125 28.070312 -0.0351562 27.40625 -2.265625 C 26.738281 -4.503906 26.378906 -7.472656 26.328125 -11.171875 C 24.890625 -8.648438 23.269531 -6.476562 21.46875 -4.65625 C 19.675781 -2.832031 17.859375 -1.421875 16.015625 -0.421875 C 14.171875 0.578125 12.453125 1.078125 10.859375 1.078125 C 9.109375 1.078125 7.882812 0.453125 7.1875 -0.796875 C 6.5 -2.054688 6.15625 -3.816406 6.15625 -6.078125 C 6.15625 -7.722656 6.296875 -9.625 6.578125 -11.78125 C 6.859375 -13.9375 7.179688 -16.269531 7.546875 -18.78125 C 7.753906 -20.070312 7.945312 -21.550781 8.125 -23.21875 C 8.300781 -24.882812 8.390625 -26.382812 8.390625 -27.71875 C 8.390625 -28.59375 8.335938 -29.335938 8.234375 -29.953125 C 8.128906 -30.566406 7.953125 -30.976562 7.703125 -31.1875 C 5.753906 -30.050781 4.007812 -28.175781 2.46875 -25.5625 C 2.101562 -26.070312 1.921875 -26.660156 1.921875 -27.328125 C 1.921875 -28.515625 2.367188 -29.722656 3.265625 -30.953125 C 4.171875 -32.179688 5.273438 -33.21875 6.578125 -34.0625 C 7.890625 -34.914062 9.1875 -35.34375 10.46875 -35.34375 C 11.695312 -35.34375 12.632812 -34.828125 13.28125 -33.796875 C 13.925781 -32.773438 14.25 -31.054688 14.25 -28.640625 C 14.25 -26.328125 13.941406 -23.171875 13.328125 -19.171875 C 12.703125 -14.859375 12.390625 -11.546875 12.390625 -9.234375 C 12.390625 -5.953125 13.210938 -4.3125 14.859375 -4.3125 C 15.835938 -4.3125 17.019531 -4.722656 18.40625 -5.546875 C 19.789062 -6.367188 21.203125 -7.519531 22.640625 -9 C 24.078125 -10.488281 25.304688 -12.238281 26.328125 -14.25 C 26.378906 -15.6875 26.457031 -17.1875 26.5625 -18.75 C 26.664062 -20.3125 26.769531 -21.941406 26.875 -23.640625 C 27.175781 -27.742188 27.6875 -30.734375 28.40625 -32.609375 C 29.125 -34.484375 30.460938 -35.421875 32.421875 -35.421875 C 32.722656 -35.421875 32.988281 -35.40625 33.21875 -35.375 C 33.457031 -35.351562 33.675781 -35.316406 33.875 -35.265625 C 33.976562 -34.804688 34.03125 -34.34375 34.03125 -33.875 C 34.03125 -33.414062 34.03125 -32.90625 34.03125 -32.34375 C 34.03125 -30.488281 33.847656 -28.5625 33.484375 -26.5625 C 33.128906 -24.5625 32.644531 -22.84375 32.03125 -21.40625 C 31.71875 -18.582031 31.5625 -16.015625 31.5625 -13.703125 C 31.5625 -11.546875 31.753906 -9.492188 32.140625 -7.546875 C 32.523438 -5.597656 33.207031 -4.160156 34.1875 -3.234375 C 35.363281 -4.054688 36.375 -4.976562 37.21875 -6 C 38.070312 -7.03125 38.882812 -8.1875 39.65625 -9.46875 Z M 39.65625 -9.46875 "/></g></g></g><g fill="#bf643a" fill-opacity="1"><g transform="translate(370.343345, 534.229006)"><g><path d="M 26.640625 -35.734375 C 28.390625 -35.734375 29.722656 -35.207031 30.640625 -34.15625 C 31.566406 -33.101562 32.195312 -31.753906 32.53125 -30.109375 C 32.863281 -28.460938 33.03125 -26.796875 33.03125 -25.109375 C 33.03125 -24.640625 33.03125 -24.1875 33.03125 -23.75 C 33.03125 -23.3125 33.003906 -22.890625 32.953125 -22.484375 C 32.597656 -17.816406 31.519531 -13.707031 29.71875 -10.15625 C 27.925781 -6.613281 25.734375 -3.851562 23.140625 -1.875 C 20.546875 0.09375 17.8125 1.078125 14.9375 1.078125 C 13.144531 1.078125 11.53125 0.664062 10.09375 -0.15625 C 9.625 0.300781 9.109375 0.617188 8.546875 0.796875 C 7.984375 0.984375 7.546875 1.078125 7.234375 1.078125 C 6.265625 1.078125 5.546875 0.28125 5.078125 -1.3125 C 4.617188 -2.90625 4.390625 -4.929688 4.390625 -7.390625 C 4.390625 -10.367188 4.609375 -13.421875 5.046875 -16.546875 C 5.484375 -19.679688 5.914062 -23.25 6.34375 -27.25 C 6.78125 -31.257812 7 -35.984375 7 -41.421875 C 7 -44.398438 6.9375 -47.109375 6.8125 -49.546875 C 6.6875 -51.984375 6.492188 -53.796875 6.234375 -54.984375 C 8.035156 -55.546875 9.421875 -55.828125 10.390625 -55.828125 C 11.578125 -55.828125 12.335938 -55.390625 12.671875 -54.515625 C 13.003906 -53.640625 13.171875 -52.148438 13.171875 -50.046875 C 13.171875 -47.484375 13.039062 -44.390625 12.78125 -40.765625 C 12.519531 -37.148438 12.054688 -33.289062 11.390625 -29.1875 C 11.335938 -28.820312 11.207031 -27.5625 11 -25.40625 C 10.800781 -23.25 10.597656 -20.8125 10.390625 -18.09375 C 11.421875 -21.125 12.796875 -23.984375 14.515625 -26.671875 C 16.234375 -29.367188 18.144531 -31.550781 20.25 -33.21875 C 22.351562 -34.894531 24.484375 -35.734375 26.640625 -35.734375 Z M 27.109375 -16.25 C 27.410156 -18.65625 27.5625 -20.707031 27.5625 -22.40625 C 27.5625 -27.644531 26.304688 -30.265625 23.796875 -30.265625 C 22.660156 -30.265625 21.347656 -29.722656 19.859375 -28.640625 C 18.378906 -27.566406 16.921875 -26.078125 15.484375 -24.171875 C 14.046875 -22.273438 12.835938 -20.039062 11.859375 -17.46875 C 10.878906 -14.90625 10.3125 -12.113281 10.15625 -9.09375 C 10.15625 -8.726562 10.164062 -8.378906 10.1875 -8.046875 C 10.21875 -7.710938 10.234375 -7.390625 10.234375 -7.078125 C 11.109375 -5.441406 12.007812 -4.328125 12.9375 -3.734375 C 13.863281 -3.140625 14.96875 -2.84375 16.25 -2.84375 C 19.019531 -2.84375 21.367188 -3.90625 23.296875 -6.03125 C 25.222656 -8.164062 26.492188 -11.570312 27.109375 -16.25 Z M 27.109375 -16.25 "/></g></g></g><g fill="#bf643a" fill-opacity="1"><g transform="translate(406.298732, 534.229006)"><g><path d="M 36.5 -8.78125 C 36.800781 -8.414062 36.953125 -7.925781 36.953125 -7.3125 C 36.953125 -6.238281 36.503906 -5.046875 35.609375 -3.734375 C 34.710938 -2.421875 33.609375 -1.289062 32.296875 -0.34375 C 30.992188 0.601562 29.75 1.078125 28.5625 1.078125 C 27.175781 1.078125 26.082031 0.425781 25.28125 -0.875 C 24.488281 -2.1875 23.925781 -3.789062 23.59375 -5.6875 C 23.257812 -7.59375 23.066406 -9.46875 23.015625 -11.3125 C 21.890625 -9.113281 20.582031 -7.078125 19.09375 -5.203125 C 17.601562 -3.328125 16.023438 -1.8125 14.359375 -0.65625 C 12.691406 0.5 10.984375 1.078125 9.234375 1.078125 C 7.597656 1.078125 6.34375 0.550781 5.46875 -0.5 C 4.59375 -1.550781 3.988281 -2.894531 3.65625 -4.53125 C 3.320312 -6.175781 3.15625 -7.820312 3.15625 -9.46875 C 3.15625 -12.65625 3.59375 -15.785156 4.46875 -18.859375 C 5.34375 -21.941406 6.570312 -24.765625 8.15625 -27.328125 C 9.75 -29.898438 11.648438 -31.941406 13.859375 -33.453125 C 16.066406 -34.972656 18.53125 -35.734375 21.25 -35.734375 C 24.632812 -35.734375 27.585938 -34.164062 30.109375 -31.03125 C 30.265625 -30.101562 30.34375 -28.972656 30.34375 -27.640625 C 30.34375 -26.515625 30.265625 -25.296875 30.109375 -23.984375 C 29.953125 -22.671875 29.695312 -21.503906 29.34375 -20.484375 C 29.34375 -19.347656 29.328125 -18.175781 29.296875 -16.96875 C 29.273438 -15.769531 29.265625 -14.578125 29.265625 -13.390625 C 29.265625 -11.648438 29.363281 -9.867188 29.5625 -8.046875 C 29.769531 -6.222656 30.4375 -4.722656 31.5625 -3.546875 C 32.4375 -4.109375 33.347656 -4.875 34.296875 -5.84375 C 35.253906 -6.820312 35.988281 -7.800781 36.5 -8.78125 Z M 12.625 -4.390625 C 14.007812 -4.390625 15.71875 -5.257812 17.75 -7 C 19.78125 -8.75 21.5625 -11.191406 23.09375 -14.328125 C 23.195312 -16.578125 23.492188 -18.84375 23.984375 -21.125 C 24.472656 -23.414062 25.15625 -25.382812 26.03125 -27.03125 C 24.789062 -28.925781 23.539062 -30.191406 22.28125 -30.828125 C 21.03125 -31.472656 19.863281 -31.796875 18.78125 -31.796875 C 16.9375 -31.796875 15.382812 -31.242188 14.125 -30.140625 C 12.875 -29.035156 11.847656 -27.5625 11.046875 -25.71875 C 10.253906 -23.875 9.691406 -21.847656 9.359375 -19.640625 C 9.023438 -17.429688 8.859375 -15.222656 8.859375 -13.015625 C 8.859375 -10.035156 9.191406 -7.851562 9.859375 -6.46875 C 10.523438 -5.082031 11.445312 -4.390625 12.625 -4.390625 Z M 12.625 -4.390625 "/></g></g></g><g fill="#bf643a" fill-opacity="1"><g transform="translate(444.255921, 534.229006)"><g><path d="M 24.953125 -35.734375 C 26.234375 -35.734375 27.066406 -35.28125 27.453125 -34.375 C 27.835938 -33.476562 28.03125 -32.59375 28.03125 -31.71875 C 28.03125 -30.28125 27.644531 -28.929688 26.875 -27.671875 C 26.101562 -26.421875 24.867188 -25.304688 23.171875 -24.328125 C 23.222656 -24.742188 23.257812 -25.144531 23.28125 -25.53125 C 23.3125 -25.914062 23.328125 -26.285156 23.328125 -26.640625 C 23.328125 -27.515625 23.195312 -28.296875 22.9375 -28.984375 C 22.6875 -29.679688 22.125 -30.03125 21.25 -30.03125 C 20.269531 -30.03125 19.28125 -29.503906 18.28125 -28.453125 C 17.28125 -27.398438 16.367188 -25.972656 15.546875 -24.171875 L 15.546875 -22.25 C 15.546875 -20.8125 15.492188 -19.257812 15.390625 -17.59375 C 15.296875 -15.925781 15.171875 -13.960938 15.015625 -11.703125 C 14.648438 -7.085938 14.109375 -3.800781 13.390625 -1.84375 C 12.671875 0.101562 11.519531 1.078125 9.9375 1.078125 C 9.726562 1.078125 9.300781 1.050781 8.65625 1 C 8.019531 0.945312 7.46875 0.84375 7 0.6875 C 7.101562 -1.207031 7.242188 -3.015625 7.421875 -4.734375 C 7.609375 -6.453125 8.035156 -8.257812 8.703125 -10.15625 C 9.316406 -14.726562 9.625 -18.554688 9.625 -21.640625 C 9.625 -28.003906 8.851562 -31.265625 7.3125 -31.421875 C 5.101562 -29.773438 3.304688 -27.691406 1.921875 -25.171875 C 1.566406 -25.484375 1.390625 -25.945312 1.390625 -26.5625 C 1.390625 -27.382812 1.679688 -28.304688 2.265625 -29.328125 C 2.859375 -30.359375 3.613281 -31.359375 4.53125 -32.328125 C 5.457031 -33.304688 6.457031 -34.117188 7.53125 -34.765625 C 8.613281 -35.410156 9.644531 -35.734375 10.625 -35.734375 C 12.113281 -35.734375 13.21875 -34.9375 13.9375 -33.34375 C 14.65625 -31.75 15.117188 -29.722656 15.328125 -27.265625 C 16.710938 -29.878906 18.289062 -31.941406 20.0625 -33.453125 C 21.832031 -34.972656 23.460938 -35.734375 24.953125 -35.734375 Z M 24.953125 -35.734375 "/></g></g></g><g fill="#bf643a" fill-opacity="1"><g transform="translate(472.666059, 534.229006)"><g><path d="M 36.5 -8.78125 C 36.800781 -8.414062 36.953125 -7.925781 36.953125 -7.3125 C 36.953125 -6.238281 36.503906 -5.046875 35.609375 -3.734375 C 34.710938 -2.421875 33.609375 -1.289062 32.296875 -0.34375 C 30.992188 0.601562 29.75 1.078125 28.5625 1.078125 C 27.175781 1.078125 26.082031 0.425781 25.28125 -0.875 C 24.488281 -2.1875 23.925781 -3.789062 23.59375 -5.6875 C 23.257812 -7.59375 23.066406 -9.46875 23.015625 -11.3125 C 21.890625 -9.113281 20.582031 -7.078125 19.09375 -5.203125 C 17.601562 -3.328125 16.023438 -1.8125 14.359375 -0.65625 C 12.691406 0.5 10.984375 1.078125 9.234375 1.078125 C 7.597656 1.078125 6.34375 0.550781 5.46875 -0.5 C 4.59375 -1.550781 3.988281 -2.894531 3.65625 -4.53125 C 3.320312 -6.175781 3.15625 -7.820312 3.15625 -9.46875 C 3.15625 -12.65625 3.59375 -15.785156 4.46875 -18.859375 C 5.34375 -21.941406 6.570312 -24.765625 8.15625 -27.328125 C 9.75 -29.898438 11.648438 -31.941406 13.859375 -33.453125 C 16.066406 -34.972656 18.53125 -35.734375 21.25 -35.734375 C 24.632812 -35.734375 27.585938 -34.164062 30.109375 -31.03125 C 30.265625 -30.101562 30.34375 -28.972656 30.34375 -27.640625 C 30.34375 -26.515625 30.265625 -25.296875 30.109375 -23.984375 C 29.953125 -22.671875 29.695312 -21.503906 29.34375 -20.484375 C 29.34375 -19.347656 29.328125 -18.175781 29.296875 -16.96875 C 29.273438 -15.769531 29.265625 -14.578125 29.265625 -13.390625 C 29.265625 -11.648438 29.363281 -9.867188 29.5625 -8.046875 C 29.769531 -6.222656 30.4375 -4.722656 31.5625 -3.546875 C 32.4375 -4.109375 33.347656 -4.875 34.296875 -5.84375 C 35.253906 -6.820312 35.988281 -7.800781 36.5 -8.78125 Z M 12.625 -4.390625 C 14.007812 -4.390625 15.71875 -5.257812 17.75 -7 C 19.78125 -8.75 21.5625 -11.191406 23.09375 -14.328125 C 23.195312 -16.578125 23.492188 -18.84375 23.984375 -21.125 C 24.472656 -23.414062 25.15625 -25.382812 26.03125 -27.03125 C 24.789062 -28.925781 23.539062 -30.191406 22.28125 -30.828125 C 21.03125 -31.472656 19.863281 -31.796875 18.78125 -31.796875 C 16.9375 -31.796875 15.382812 -31.242188 14.125 -30.140625 C 12.875 -29.035156 11.847656 -27.5625 11.046875 -25.71875 C 10.253906 -23.875 9.691406 -21.847656 9.359375 -19.640625 C 9.023438 -17.429688 8.859375 -15.222656 8.859375 -13.015625 C 8.859375 -10.035156 9.191406 -7.851562 9.859375 -6.46875 C 10.523438 -5.082031 11.445312 -4.390625 12.625 -4.390625 Z M 12.625 -4.390625 "/></g></g></g><g fill="#bf643a" fill-opacity="1"><g transform="translate(510.623248, 534.229006)"><g><path d="M 34.875 -7.546875 C 35.1875 -7.179688 35.34375 -6.71875 35.34375 -6.15625 C 35.34375 -5.082031 34.867188 -3.96875 33.921875 -2.8125 C 32.972656 -1.65625 31.816406 -0.664062 30.453125 0.15625 C 29.085938 0.976562 27.789062 1.390625 26.5625 1.390625 C 25.488281 1.390625 24.296875 0.914062 22.984375 -0.03125 C 21.671875 -0.988281 20.15625 -2.722656 18.4375 -5.234375 C 16.71875 -7.753906 14.675781 -11.375 12.3125 -16.09375 C 15.707031 -16.550781 18.429688 -17.410156 20.484375 -18.671875 C 22.535156 -19.929688 24.019531 -21.328125 24.9375 -22.859375 C 25.863281 -24.398438 26.328125 -25.84375 26.328125 -27.1875 C 26.328125 -28.3125 26.109375 -29.207031 25.671875 -29.875 C 25.242188 -30.539062 24.515625 -30.875 23.484375 -30.875 C 22.097656 -30.875 20.617188 -30.320312 19.046875 -29.21875 C 17.484375 -28.113281 16.070312 -26.46875 14.8125 -24.28125 C 13.5625 -22.101562 12.726562 -19.375 12.3125 -16.09375 C 12.21875 -10.238281 11.875 -5.910156 11.28125 -3.109375 C 10.6875 -0.316406 9.335938 1.078125 7.234375 1.078125 C 6.984375 1.078125 6.613281 1.050781 6.125 1 C 5.632812 0.945312 5.1875 0.84375 4.78125 0.6875 C 5.5 -3.976562 6.0625 -8.671875 6.46875 -13.390625 C 6.875 -18.117188 7.164062 -22.6875 7.34375 -27.09375 C 7.53125 -31.507812 7.625 -35.539062 7.625 -39.1875 C 7.625 -43.144531 7.554688 -46.519531 7.421875 -49.3125 C 7.296875 -52.113281 7.132812 -54.003906 6.9375 -54.984375 C 8.625 -55.546875 9.957031 -55.828125 10.9375 -55.828125 C 12.113281 -55.828125 12.894531 -55.363281 13.28125 -54.4375 C 13.664062 -53.507812 13.859375 -51.894531 13.859375 -49.59375 C 13.859375 -48.96875 13.84375 -48.015625 13.8125 -46.734375 C 13.789062 -45.453125 13.753906 -44.023438 13.703125 -42.453125 C 13.648438 -40.890625 13.5625 -39.351562 13.4375 -37.84375 C 13.3125 -36.332031 13.171875 -35.035156 13.015625 -33.953125 C 12.910156 -32.054688 12.816406 -30.222656 12.734375 -28.453125 C 12.660156 -26.679688 12.570312 -24.664062 12.46875 -22.40625 C 13.132812 -24.351562 14.109375 -26.351562 15.390625 -28.40625 C 16.679688 -30.46875 18.285156 -32.203125 20.203125 -33.609375 C 22.128906 -35.023438 24.328125 -35.734375 26.796875 -35.734375 C 28.335938 -35.734375 29.492188 -35.445312 30.265625 -34.875 C 31.035156 -34.3125 31.546875 -33.59375 31.796875 -32.71875 C 32.054688 -31.851562 32.1875 -30.957031 32.1875 -30.03125 C 32.1875 -27.101562 31.160156 -24.328125 29.109375 -21.703125 C 27.054688 -19.085938 23.742188 -17.269531 19.171875 -16.25 C 19.992188 -13.78125 21.054688 -11.582031 22.359375 -9.65625 C 23.671875 -7.738281 25.003906 -6.175781 26.359375 -4.96875 C 27.722656 -3.757812 28.84375 -2.976562 29.71875 -2.625 C 30.539062 -2.875 31.390625 -3.472656 32.265625 -4.421875 C 33.140625 -5.378906 34.007812 -6.421875 34.875 -7.546875 Z M 34.875 -7.546875 "/></g></g></g></svg>